<?xml version="1.0" encoding="UTF-8"?><svg id="_レイヤー_1" xmlns="http://www.w3.org/2000/svg" viewBox="0 0 1080 1080"><path d="M873.82,241.63h-123.12c-16.7,0-29.77-14.37-28.19-30.99l5.17-54.45h-76.76l-4.98,52.47c-1.77,18.69-17.47,32.97-36.25,32.97h-84.76c-16.7,0-29.77-14.37-28.19-30.99l5.17-54.45h-76.76l-4.98,52.47c-1.77,18.69-17.47,32.97-36.25,32.97h-117.05c-8.94,0-16.18,7.24-16.18,16.18v220.86c0,8.94,7.24,16.18,16.18,16.18h95.02c16.7,0,29.77,14.37,28.19,30.99l-2.5,26.33c-1.77,18.69-17.47,32.97-36.25,32.97h-145.15c-8.94,0-16.18,7.24-16.18,16.18v220.86c0,8.94,7.24,16.18,16.18,16.18h123.11c16.7,0,29.77,14.37,28.19,30.99l-5.17,54.45h76.76l4.98-52.47c1.77-18.69,17.47-32.97,36.25-32.97h84.76c16.7,0,29.77,14.37,28.19,30.99l-5.17,54.45h76.76l4.98-52.47c1.77-18.69,17.47-32.97,36.25-32.97h117.05c8.94,0,16.18-7.24,16.18-16.18v-220.86c0-8.94-7.24-16.18-16.18-16.18h-95.02c-16.7,0-29.77-14.37-28.19-30.99l2.84-29.99c1.58-16.62,15.53-29.31,32.22-29.31h148.83c8.94,0,16.18-7.24,16.18-16.18v-220.86c0-8.94-7.24-16.18-16.18-16.18ZM577.1,585.14h-84.76c-16.7,0-29.77-14.37-28.19-30.99l2.5-26.33c1.77-18.69,17.47-32.97,36.25-32.97h84.76c16.7,0,29.77,14.37,28.19,30.99l-2.5,26.33c-1.77,18.69-17.47,32.97-36.25,32.97Z"/></svg>